<?xml version="1.0" encoding="UTF-8"?>
<svg id="Livello_1" data-name="Livello 1" xmlns="http://www.w3.org/2000/svg" viewBox="0 0 825.12 106.61">
  <defs>
    <style>
      .cls-1, .cls-2, .cls-3, .cls-4 {
        stroke-width: 0px;
      }

      .cls-1, .cls-3 {
        fill: #051f2c;
      }

      .cls-1, .cls-4 {
        fill-rule: evenodd;
      }

      .cls-2, .cls-4 {
        fill: #f29500;
      }
    </style>
  </defs>
  <path class="cls-2" d="M203.13,40.05v6.54h24.91v13.36h-24.91v6.64h28.1v13.37h-45.77V26.65h45.1v13.4h-27.43ZM203.13,40.05"/>
  <path class="cls-2" d="M283.09,79.96v-29.18l-9.13,24.03h-11.55l-9.13-24.03v29.18h-15.37V26.65h18.64l11.65,27.84,11.62-27.84h18.63v53.31h-15.37ZM283.09,79.96"/>
  <path class="cls-2" d="M350.32,79.96v-29.18l-9.14,24.03h-11.54l-9.14-24.03v29.18h-15.36V26.65h18.64l11.65,27.84,11.62-27.84h18.63v53.31h-15.37ZM350.32,79.96"/>
  <path class="cls-2" d="M390.05,40.05v6.54h24.91v13.36h-24.91v6.64h28.1v13.37h-45.78V26.65h45.11v13.4h-27.43ZM390.05,40.05"/>
  <path class="cls-2" d="M457.61,40.58v39.38h-17.64v-39.38h-15.14v-13.92h48v13.92h-15.22ZM457.61,40.58"/>
  <rect class="cls-2" x="479.51" y="26.65" width="17.67" height="53.31"/>
  <path class="cls-3" d="M525.5,26.65c3.02,0,6.02.44,9,1.32,2.97.88,5.57,2.08,7.77,3.57l-2.58,5.69c-2.27-1.5-4.68-2.62-7.24-3.36-2.58-.73-5.01-1.1-7.32-1.1-3.42,0-6.15.61-8.19,1.85-2.04,1.22-3.06,2.96-3.06,5.2,0,1.92.56,3.5,1.69,4.75,1.13,1.25,2.55,2.23,4.25,2.93,1.72.7,4.05,1.5,7.03,2.42,3.61,1.15,6.52,2.24,8.71,3.24,2.2,1.01,4.08,2.5,5.64,4.46,1.56,1.97,2.35,4.57,2.35,7.78,0,2.92-.79,5.48-2.38,7.66-1.58,2.18-3.83,3.89-6.73,5.09-2.9,1.2-6.25,1.81-10.03,1.81s-7.46-.73-11.02-2.2c-3.56-1.46-6.62-3.42-9.18-5.88l2.69-5.43c2.41,2.37,5.2,4.19,8.35,5.5,3.16,1.3,6.23,1.96,9.23,1.96,3.84,0,6.86-.74,9.08-2.23,2.21-1.49,3.31-3.49,3.31-6,0-1.97-.57-3.59-1.73-4.87-1.15-1.27-2.59-2.28-4.3-2.99-1.7-.71-4.04-1.5-7.02-2.4-3.56-1.05-6.46-2.07-8.68-3.06-2.23-.98-4.11-2.45-5.65-4.38-1.54-1.95-2.31-4.5-2.31-7.67,0-2.73.76-5.12,2.28-7.18,1.5-2.07,3.65-3.67,6.43-4.79,2.78-1.13,5.97-1.69,9.59-1.69h0ZM525.5,26.65"/>
  <path class="cls-3" d="M573.67,32.52v47.43h-6.1v-47.43h-17.32v-5.87h40.85v5.87h-17.43ZM573.67,32.52"/>
  <path class="cls-3" d="M625.5,26.66c5.01,0,9.64,1.19,13.86,3.56,4.23,2.37,7.57,5.59,10.05,9.64,2.47,4.06,3.7,8.52,3.7,13.39s-1.23,9.37-3.7,13.45c-2.47,4.08-5.81,7.31-10.05,9.7-4.22,2.38-8.84,3.57-13.86,3.57s-9.75-1.18-13.97-3.57c-4.23-2.39-7.58-5.62-10.05-9.7-2.46-4.08-3.7-8.56-3.7-13.45s1.23-9.38,3.7-13.44c2.47-4.07,5.82-7.28,10.05-9.63,4.22-2.35,8.89-3.52,13.97-3.52h0ZM625.5,32.42c-3.88,0-7.47.93-10.76,2.8-3.3,1.86-5.93,4.38-7.89,7.56-1.96,3.17-2.95,6.66-2.95,10.47s.98,7.34,2.95,10.54c1.97,3.19,4.59,5.71,7.89,7.57,3.29,1.85,6.88,2.79,10.76,2.79s7.45-.93,10.71-2.79c3.25-1.86,5.86-4.38,7.79-7.57,1.95-3.2,2.92-6.71,2.92-10.54s-.97-7.33-2.92-10.49c-1.94-3.16-4.54-5.68-7.81-7.54-3.27-1.87-6.83-2.8-10.69-2.8h0ZM625.5,32.42"/>
  <path class="cls-3" d="M683.51,62.97c-1.51.1-2.7.16-3.56.16h-14.17v16.84h-6.1V26.65h20.27c6.63,0,11.8,1.56,15.48,4.68,3.67,3.12,5.51,7.54,5.51,13.23,0,4.36-1.03,8.01-3.08,10.94-2.06,2.94-5.01,5.05-8.85,6.34l12.46,18.1h-6.92l-11.04-16.99ZM679.95,57.28c4.86,0,8.59-1.06,11.2-3.19,2.62-2.13,3.92-5.26,3.92-9.36s-1.3-7.05-3.92-9.11c-2.61-2.06-6.34-3.09-11.2-3.09h-14.17v24.75h14.17ZM679.95,57.28"/>
  <path class="cls-3" d="M714.25,32.52v17.5h26.88v5.87h-26.88v18.25h31.08v5.8h-37.18V26.65h36.17v5.87h-30.07ZM714.25,32.52"/>
  <path class="cls-3" d="M758.78,66.63c1.84,0,3.39.64,4.66,1.93,1.27,1.29,1.9,2.88,1.9,4.76s-.63,3.45-1.9,4.72c-1.27,1.27-2.83,1.91-4.66,1.91s-3.52-.64-4.82-1.91c-1.29-1.27-1.94-2.85-1.94-4.72s.65-3.47,1.94-4.76c1.3-1.29,2.9-1.93,4.82-1.93h0ZM758.78,66.63"/>
  <rect class="cls-3" x="772.03" y="26.65" width="6.1" height="53.31"/>
  <path class="cls-3" d="M807.69,32.52v47.43h-6.1v-47.43h-17.32v-5.87h40.85v5.87h-17.43ZM807.69,32.52"/>
  <rect class="cls-2" x="128.81" y="13.33" width="3.34" height="79.96"/>
  <g>
    <path class="cls-4" d="M75.5,0l-9.57,19.67H19.67v29.55H0V0h75.5ZM75.5,0"/>
    <path class="cls-4" d="M54.22,43.28l-9.46,19.77h-17.22v-19.77h26.68ZM54.22,43.28"/>
    <polygon class="cls-1" points="0 56.67 20.13 56.67 20.13 86.45 75.5 86.45 65.54 106.61 0 106.61 0 56.67"/>
  </g>
</svg>